<?xml version="1.0" standalone="no"?>
<!DOCTYPE svg PUBLIC "-//W3C//DTD SVG 20010904//EN"
 "http://www.w3.org/TR/2001/REC-SVG-20010904/DTD/svg10.dtd">
<svg version="1.0" xmlns="http://www.w3.org/2000/svg"
 width="200.000000pt" height="200.000000pt" viewBox="0 0 200.000000 200.000000"
 preserveAspectRatio="xMidYMid meet">

<g transform="translate(0.000000,200.000000) scale(0.100000,-0.100000)"
fill="#000000" stroke="none">
<path d="M960 1723 c-20 -9 -57 -15 -87 -13 -74 2 -146 -38 -179 -102 -35 -68
0 -94 37 -28 25 45 66 74 117 85 28 6 32 4 32 -15 0 -34 27 -35 58 -2 16 17
41 34 56 38 23 5 39 4 111 -8 12 -2 21 3 23 15 2 12 -7 22 -32 32 -45 19 -92
18 -136 -2z"/>
<path d="M1537 1684 c-20 -20 -5 -42 33 -48 46 -7 104 -54 118 -95 9 -25 8
-30 -9 -34 -30 -8 -22 -32 16 -50 47 -23 70 -61 71 -122 0 -42 3 -50 19 -50
43 0 37 117 -9 166 -13 14 -28 48 -35 75 -20 84 -79 140 -166 158 -17 4 -34 4
-38 0z"/>
<path d="M1255 1598 c-16 -6 -47 -23 -67 -39 l-37 -29 -49 25 c-99 50 -233 22
-301 -62 -22 -28 -44 -42 -76 -51 -116 -31 -200 -129 -212 -248 -4 -40 -10
-55 -24 -59 -10 -4 -39 -26 -63 -51 -135 -135 -104 -352 64 -453 19 -11 43
-21 53 -21 11 0 25 -18 41 -52 60 -137 216 -193 343 -123 36 20 48 21 89 14
84 -16 231 40 263 100 9 16 16 17 60 8 164 -34 329 105 331 279 0 44 4 54 34
83 51 49 79 122 79 201 0 109 -52 196 -147 246 -48 25 -55 33 -60 65 -15 93
-129 180 -235 178 -31 0 -69 -5 -86 -11z m170 -50 c30 -16 75 -60 91 -90 24
-47 19 -57 -33 -60 -40 -3 -48 -6 -48 -23 0 -18 7 -20 60 -21 33 -1 76 -8 95
-16 140 -59 191 -227 109 -352 -17 -25 -34 -46 -38 -46 -4 0 -13 11 -19 25
-12 27 -39 34 -48 12 -2 -7 2 -30 11 -50 19 -46 19 -134 0 -180 -38 -91 -132
-151 -228 -145 l-52 3 0 35 c0 49 -23 45 -52 -10 -44 -82 -102 -125 -187 -136
-59 -9 -80 -1 -67 25 8 14 7 22 -4 31 -12 10 -22 4 -58 -33 -52 -53 -101 -72
-170 -64 -61 8 -116 44 -145 96 -12 21 -22 41 -22 44 0 3 17 7 38 9 29 2 37 7
37 23 0 18 -7 20 -65 21 -140 2 -240 102 -240 239 0 100 59 184 155 220 31 12
45 23 45 36 0 11 -7 19 -15 19 -20 0 -20 49 1 98 25 62 86 116 152 136 19 6
22 4 22 -18 0 -44 35 -34 49 14 14 47 61 104 105 127 37 20 131 21 166 3 14
-7 44 -30 67 -52 45 -44 68 -43 58 2 -5 22 0 32 25 54 17 14 44 29 58 32 15 3
32 7 37 9 15 6 87 -6 110 -17z"/>
<path d="M966 1375 c-19 -20 -20 -26 -3 -49 26 -36 84 4 61 42 -15 23 -38 26
-58 7z"/>
<path d="M1232 1358 c-28 -28 -1 -75 38 -63 20 6 24 16 20 45 -4 28 -37 39
-58 18z"/>
<path d="M1526 1217 c-28 -20 -18 -61 16 -65 36 -4 53 26 32 56 -18 26 -24 27
-48 9z"/>
<path d="M676 1167 c-36 -26 4 -84 42 -61 23 15 26 38 7 58 -20 19 -26 20 -49
3z"/>
<path d="M1232 1168 c-15 -15 -15 -41 0 -56 34 -34 79 7 52 46 -17 25 -34 28
-52 10z"/>
<path d="M955 1147 c-10 -8 -16 -23 -13 -38 2 -19 9 -24 33 -24 25 0 31 4 33
27 4 34 -26 54 -53 35z"/>
<path d="M786 927 c-36 -26 4 -84 42 -61 23 15 26 38 7 58 -20 19 -26 20 -49
3z"/>
<path d="M1286 927 c-36 -26 4 -84 42 -61 23 15 26 38 7 58 -20 19 -26 20 -49
3z"/>
<path d="M532 911 c-8 -4 -12 -21 -10 -37 2 -23 8 -29 27 -29 31 0 50 28 35
53 -13 20 -34 25 -52 13z"/>
<path d="M1080 895 c-26 -32 13 -81 48 -59 34 22 22 74 -18 74 -10 0 -23 -7
-30 -15z"/>
<path d="M1460 891 c-25 -47 36 -83 64 -38 8 12 8 22 0 35 -16 25 -51 27 -64
3z"/>
<path d="M1024 706 c-10 -27 1 -51 26 -54 31 -5 53 23 39 49 -12 22 -57 25
-65 5z"/>
<path d="M767 683 c-15 -14 -6 -53 15 -64 18 -10 24 -8 40 11 13 17 15 26 8
41 -10 18 -50 26 -63 12z"/>
<path d="M306 1289 c-33 -26 -66 -89 -66 -127 0 -16 -7 -36 -17 -43 -26 -22
-53 -90 -53 -134 0 -47 32 -123 55 -131 31 -12 37 11 14 55 -16 32 -20 53 -17
91 5 53 25 87 41 71 5 -5 15 -7 23 -4 10 4 12 20 7 69 l-6 64 42 41 c60 56 40
98 -23 48z"/>
<path d="M1754 906 c-3 -8 2 -28 10 -45 22 -41 20 -99 -4 -139 -17 -27 -24
-32 -35 -22 -24 20 -38 1 -31 -41 9 -53 -14 -104 -59 -130 -37 -22 -45 -46
-20 -55 37 -15 125 78 125 132 0 9 16 34 34 55 58 63 69 155 30 230 -15 31
-41 38 -50 15z"/>
<path d="M1166 405 c-11 -20 -34 -44 -51 -55 -40 -24 -105 -27 -105 -5 0 25
-30 30 -45 8 -29 -42 -87 -51 -177 -28 -24 6 -28 4 -28 -13 0 -39 107 -65 167
-41 15 7 56 11 90 10 45 -2 72 3 101 18 48 25 102 87 102 118 0 36 -33 28 -54
-12z"/>
</g>
</svg>
