<?xml version="1.0" standalone="no"?>
<!DOCTYPE svg PUBLIC "-//W3C//DTD SVG 20010904//EN"
 "http://www.w3.org/TR/2001/REC-SVG-20010904/DTD/svg10.dtd">
<svg version="1.0" xmlns="http://www.w3.org/2000/svg"
 width="260.000000pt" height="223.000000pt" viewBox="0 0 260.000000 223.000000"
 preserveAspectRatio="xMidYMid meet">

<g transform="translate(0.000000,223.000000) scale(0.100000,-0.100000)"
fill="#000000" stroke="none">
<path d="M465 1876 c-62 -28 -115 -110 -115 -178 1 -68 60 -153 123 -177 44
-17 119 -13 160 8 l37 19 0 -587 c0 -547 2 -589 19 -626 22 -49 69 -91 119
-105 25 -8 207 -10 569 -8 l531 3 44 30 c50 35 88 102 88 157 l0 38 -160 0
-160 0 0 158 0 158 58 24 c186 77 421 276 548 466 101 150 119 259 54 317 -26
23 -39 27 -88 27 -118 -1 -314 -110 -484 -270 l-88 -82 0 241 c0 236 -1 243
-24 289 -15 29 -41 60 -67 78 l-42 29 -546 2 c-441 2 -552 0 -576 -11z m163
-90 c34 -31 37 -39 37 -86 0 -47 -3 -55 -37 -86 -31 -28 -45 -34 -83 -34 -38
0 -52 6 -83 34 -34 31 -37 39 -37 86 0 47 3 55 37 86 31 28 45 34 83 34 38 0
52 -6 83 -34z m957 14 c62 -38 65 -57 65 -363 l0 -274 -45 -69 c-57 -86 -85
-161 -85 -225 0 -48 -4 -55 -55 -112 -56 -61 -65 -83 -43 -105 19 -19 26 -15
91 52 59 61 64 64 100 59 l37 -5 0 -154 0 -154 -329 0 -329 0 -6 -45 c-17
-111 -141 -150 -218 -68 l-23 25 -5 696 c-5 643 -6 700 -23 730 l-18 32 427 0
c410 0 428 -1 459 -20z m753 -282 c44 -44 -39 -209 -188 -371 -151 -164 -391
-317 -497 -317 -25 0 -19 8 72 101 114 115 262 246 383 338 83 63 95 83 60
104 -12 8 -25 5 -56 -16 -86 -57 -253 -198 -386 -327 -93 -91 -136 -127 -131
-110 48 157 267 397 484 531 112 68 228 98 259 67z m-378 -1146 c0 -4 -7 -18
-16 -31 -35 -49 -53 -51 -505 -51 -231 0 -419 3 -417 8 2 4 10 24 18 45 l14
37 453 0 c249 0 453 -3 453 -8z"/>
<path d="M909 1474 c-9 -11 -10 -20 -2 -32 9 -15 41 -17 304 -17 275 0 294 1
297 18 9 45 -4 47 -303 47 -246 0 -284 -2 -296 -16z"/>
<path d="M907 1233 c-14 -13 -7 -43 13 -53 12 -7 117 -9 296 -8 242 3 278 5
287 19 6 9 7 24 4 33 -6 14 -37 16 -300 16 -162 0 -297 -3 -300 -7z"/>
<path d="M909 984 c-9 -11 -10 -20 -2 -32 9 -15 41 -17 304 -17 275 0 294 1
297 18 9 45 -4 47 -303 47 -246 0 -284 -2 -296 -16z"/>
<path d="M907 744 c-14 -14 -7 -43 12 -54 11 -5 80 -10 153 -10 142 0 174 9
166 46 -3 18 -14 19 -164 22 -88 1 -163 -1 -167 -4z"/>
</g>
</svg>
