<?xml version="1.0" standalone="no"?>
<!DOCTYPE svg PUBLIC "-//W3C//DTD SVG 20010904//EN"
 "http://www.w3.org/TR/2001/REC-SVG-20010904/DTD/svg10.dtd">
<svg version="1.0" xmlns="http://www.w3.org/2000/svg"
 width="900.000000pt" height="520.000000pt" viewBox="0 0 900.000000 520.000000"
 preserveAspectRatio="xMidYMid meet">

<g transform="translate(0.000000,520.000000) scale(0.100000,-0.100000)"
fill="#000000" stroke="none">
<path d="M4002 5180 c-103 -27 -166 -64 -248 -145 -73 -72 -115 -141 -150
-245 -18 -52 -19 -122 -22 -1357 l-3 -1301 -63 -41 c-35 -23 -97 -74 -138
-114 -231 -225 -350 -525 -335 -847 13 -275 127 -531 323 -726 441 -437 1138
-430 1566 14 260 271 363 616 292 985 -52 268 -212 515 -439 676 l-80 57 -5
1315 -5 1314 -25 65 c-108 275 -390 423 -668 350z m290 -238 c73 -36 124 -87
160 -161 l23 -46 5 -1364 5 -1364 88 -51 c161 -93 294 -234 369 -393 269 -570
-126 -1228 -757 -1260 -440 -22 -822 278 -910 716 -23 109 -16 283 14 396 61
229 219 427 439 550 l71 40 3 1355 3 1355 28 60 c86 183 282 254 459 167z"/>
<path d="M4000 3088 l0 -1213 -73 -23 c-188 -61 -345 -202 -426 -384 -44 -97
-56 -161 -56 -293 0 -135 17 -203 83 -330 50 -96 182 -227 277 -277 125 -65
203 -83 345 -82 106 1 137 5 205 27 110 36 196 89 281 172 274 269 281 694 17
981 -80 86 -174 145 -303 189 l-65 22 -3 1211 -2 1212 -140 0 -140 0 0 -1212z
m115 -1348 c38 -23 65 -74 65 -120 0 -67 -41 -112 -129 -141 -116 -39 -211
-160 -211 -270 0 -44 -29 -107 -60 -129 -60 -43 -133 -35 -186 21 -24 25 -29
39 -32 97 -7 127 48 275 142 379 130 143 321 219 411 163z"/>
<path d="M5120 4440 l0 -110 420 0 420 0 0 110 0 110 -420 0 -420 0 0 -110z"/>
<path d="M5120 3960 l0 -110 243 2 242 3 3 108 3 107 -246 0 -245 0 0 -110z"/>
<path d="M5120 3490 l0 -110 420 0 420 0 0 110 0 110 -420 0 -420 0 0 -110z"/>
<path d="M5120 3010 l0 -110 243 2 242 3 3 108 3 107 -246 0 -245 0 0 -110z"/>
<path d="M5120 2540 l0 -110 420 0 420 0 0 110 0 110 -420 0 -420 0 0 -110z"/>
</g>
</svg>
